Coordinates
version=1
nRows=5
nColumns=40
inDegrees=yes

Units are S.I. units (second, meters, Newtons, ...)
Angles are in degrees.

endheader
time	pelvis_tilt	pelvis_list	pelvis_rotation	pelvis_tx	pelvis_ty	pelvis_tz	hip_flexion_r	hip_adduction_r	hip_rotation_r	knee_angle_r	knee_angle_r_beta	ankle_angle_r	subtalar_angle_r	mtp_angle_r	hip_flexion_l	hip_adduction_l	hip_rotation_l	knee_angle_l	knee_angle_l_beta	ankle_angle_l	subtalar_angle_l	mtp_angle_l	lumbar_extension	lumbar_bending	lumbar_rotation	arm_flex_r	arm_add_r	arm_rot_r	elbow_flex_r	pro_sup_r	wrist_flex_r	wrist_dev_r	arm_flex_l	arm_add_l	arm_rot_l	elbow_flex_l	pro_sup_l	wrist_flex_l	wrist_dev_l
      6.26978571	     -5.77276590	     -4.03902385	      6.16178568	      1.01885446	      0.92123473	      0.54183747	      7.96387278	      4.81917482	    -15.32971382	     17.85369700	     17.85369700	     17.47296604	     -4.19277551	     -0.85969091	     27.68036578	    -10.25022539	      1.16547209	     22.62959682	     22.62959682	      8.15919003	     -6.20487120	      6.03259167	     -9.40306714	      6.20355679	      1.72891093	     51.05905687	    -17.02257725	     -4.46970638	     83.14872280	     44.67671924	      0.00000000	      0.00000000	    -13.31619678	    -11.44754121	     21.15528816	     30.30060337	     43.22649584	      0.00000000	      0.00000000
      6.29457143	     -5.71891237	     -4.27381331	      6.27578384	      1.01865273	      0.92129033	      0.53831518	      7.23682804	      4.93173596	    -15.54343716	     17.21983235	     17.21983235	     17.50446732	     -3.73566105	     -0.84773785	     27.45638508	    -10.21590637	      1.41247990	     22.85767728	     22.85767728	      7.87324707	     -6.38765896	      5.37945667	     -9.47126961	      6.31502589	      1.60938991	     52.31415034	    -16.48472533	     -3.96490779	     84.56929984	     44.62680661	      0.00000000	      0.00000000	    -13.41065567	    -11.50248664	     21.54002376	     30.16812131	     43.19410008	      0.00000000	      0.00000000
      6.31935714	     -5.92696828	     -4.28935960	      6.32212198	      1.01862090	      0.92103552	      0.53448311	      6.94797457	      4.73147248	    -15.53729244	     16.96772160	     16.96772160	     17.63214035	     -3.66963884	     -0.84320835	     27.40994807	     -9.95840338	      1.42959047	     23.07133218	     23.07133218	      7.79486827	     -6.45709270	      5.23401860	     -9.07888692	      6.07946636	      1.89016448	     53.06265076	    -16.35005745	     -3.87023724	     84.94675971	     44.61587090	      0.00000000	      0.00000000	    -13.41001226	    -11.71811176	     21.56679455	     30.11646896	     43.19362660	      0.00000000	      0.00000000
      6.34414286	     -5.84723719	     -4.48911036	      6.30808266	      1.01889809	      0.92111004	      0.53030257	      6.11183669	      4.74473101	    -15.84920604	     16.25650766	     16.25650766	     17.49370002	     -2.85596033	     -1.19983022	     27.01197779	     -9.84696703	      1.81449576	     23.13886945	     23.13886945	      6.35780451	     -7.74123004	      1.97709838	     -9.18458689	      6.16753630	      2.15365400	     53.87472626	    -16.80083224	     -2.88259951	     87.09631505	     44.59716360	      0.00000000	      0.00000000	    -13.14173648	    -12.13757720	     24.01782335	     30.22444219	     43.06796740	      0.00000000	      0.00000000
      6.36892857	     -5.95877593	     -4.49921802	      6.22144302	      1.01917841	      0.92099171	      0.52586686	      5.69342884	      4.50590297	    -15.76254816	     15.99918374	     15.99918374	     17.55554082	     -2.70312075	     -1.16541881	     26.93164086	     -9.60510876	      1.80105242	     23.60421500	     23.60421500	      6.45765716	     -8.06086503	      1.90945073	     -8.96892778	      5.99767301	      2.37655304	     54.70998732	    -16.61188790	     -2.86090877	     87.41816074	     44.59168995	      0.00000000	      0.00000000	    -13.04815735	    -12.21334197	     24.06007118	     30.22820871	     43.07017581	      0.00000000	      0.00000000
